<svg width="800" height="600" xmlns="http://www.w3.org/2000/svg">
 <g>
  <title>Layer 1</title>
  <g stroke="null" id="svg_7">
   <desc stroke="null">Created with Fabric.js 5.3.0</desc>
   <g stroke="null" id="svg_6" transform="matrix(1.14567 0 0 0.934896 639.988 516.156)">
    <rect stroke=" none" fill-rule=" nonzero" fill-opacity="0" fill=" rgb(255,255,255)" stroke-miterlimit="4" stroke-linejoin=" miter" stroke-dashoffset="0" stroke-linecap=" butt" stroke-dasharray=" none" stroke-width="0" height="1024" width="1280" y="-743.23539" x="-854.78993" paint-order="stroke" id="svg_8"/>
   </g>
   <g stroke="null" id="svg_5" transform="matrix(2.201 0 0 1.79608 639.988 402.767)">
    <g stroke="null" paint-order="stroke" id="svg_9">
     <g stroke="null" transform="matrix(0.255739 0 0 -0.255739 10.4431 -24.9756)" id="svg_10">
      <path stroke=" none" fill-rule=" evenodd" fill=" rgb(238,78,28)" stroke-miterlimit="10" stroke-linejoin=" miter" stroke-dashoffset="0" stroke-dasharray=" none" stroke-linecap=" butt" d="m-566.91376,437.47577l259.49,39.79l0,26.54l-259.49,-39.82l0,-26.51" paint-order="stroke" id="svg_11"/>
     </g>
     <g stroke="null" transform="matrix(0.255739 0 0 -0.255739 0 1.91522)" id="svg_12">
      <path stroke=" none" fill-rule=" evenodd" fill=" rgb(238,78,28)" stroke-miterlimit="10" stroke-linejoin=" miter" stroke-dashoffset="0" stroke-dasharray=" none" stroke-linecap=" butt" d="m-175.16368,741.65616l0,-415.86c0,-49.78 -37.73,-85.63 -86.52,-85.63c-48.77,0 -86.54,37 -86.54,80.89c0,43.89 36.08,78.35 81.63,80.75l0,125.3l-259.49,-39.81l0,-179.06c0,-49.8 -37.71,-85.66 -86.51,-85.66c-48.79,0 -86.56,37.01 -86.56,80.91c0,43.9 36.11,78.37 81.6,80.76l0,300.39l75.82,71.07l37.63,-83.32l51.04,116.93l38.97,-103.49l72.59,100.78l33.57,-102.47l41.57,122.63c-51.3,26.1 -109.31,40.91 -170.79,40.91c-208.22,0 -377.07,-168.81 -377.07,-377.04c0,-208.23 168.85,-377.03 377.07,-377.03c208.24,0 377.03,168.8 377.03,377.03c0,106.41 -44.14,202.47 -115.04,271.02" paint-order="stroke" id="svg_13"/>
     </g>
     <g stroke="null" transform="matrix(0.255739 0 0 -0.255739 55.3442 -82.8657)" id="svg_14">
      <path stroke=" none" fill-rule=" evenodd" fill=" rgb(238,78,28)" stroke-miterlimit="10" stroke-linejoin=" miter" stroke-dashoffset="0" stroke-dasharray=" none" stroke-linecap=" butt" d="m-391.57384,531.14639l-72.27,0l-18.93,-55.89c33.63,-17.13 64.33,-39.12 91.2,-65.11l0,121" paint-order="stroke" id="svg_15"/>
     </g>
    </g>
   </g>
   <g stroke="null" id="svg_3" transform="matrix(2.201 0 0 1.79608 640.076 667.62)">
    <g stroke="null" paint-order="stroke" id="svg_16">
     <g stroke="null" id="svg_4">
      <path stroke=" none" fill-rule=" nonzero" fill=" rgb(236,76,28)" stroke-miterlimit="4" stroke-linejoin=" miter" stroke-dashoffset="0" stroke-dasharray=" none" stroke-width="0.70328" stroke-linecap=" butt" d="m-222.66257,-113.77277l6.64,11.88l10.26,0l-7.72,-13.93c3.56,-2.32 5.61,-6.27 5.61,-10.48c0,-6.96 -5.56,-12.53 -12.47,-12.53l-15.66,0l0,36.94l9.02,0l0,-11.88l4.32,0zm-4.32,-8.53l0,-7.99l6.64,0c2.27,0 3.99,1.72 3.99,3.99c0,2.16 -1.83,4 -3.99,4l-6.64,0zm55.67,-16.53l0,13.77l-14.8,0l0,-13.77l-9.01,0l0,36.94l9.01,0l0,-14.63l14.8,0l0,14.63l8.96,0l0,-36.94l-8.96,0zm44.06,0l-7.5,13.88l-7.56,-13.88l-10.15,0l13.17,24.41l0,12.53l9.02,0l0,-12.42l13.18,-24.52l-10.16,0zm46.55,8.54l0,-8.54l-27.59,0l0,8.54l9.34,0l0,28.4l8.96,0l0,-28.4l9.29,0zm33.59,-8.54l0,13.77l-14.8,0l0,-13.77l-9.01,0l0,36.94l9.01,0l0,-14.63l14.8,0l0,14.63l8.96,0l0,-36.94l-8.96,0zm50.54,0.06l-0.05,-0.06l-9.67,16.15l-9.66,-16.15l-9.02,0l0,36.94l9.02,0l0,-20.47l8.58,14.42l2.22,0l8.58,-14.42l0,20.47l8.97,0l0,-36.94l-8.97,0l0,0.06z" paint-order="stroke" id="svg_17"/>
     </g>
    </g>
   </g>
   <g stroke="null" id="svg_1" transform="matrix(2.201 0 0 1.79608 641.025 757.19)">
    <g stroke="null" paint-order="stroke" id="svg_18">
     <g stroke="null" id="svg_2">
      <path stroke=" none" fill-rule=" nonzero" fill=" rgb(238,78,28)" stroke-miterlimit="4" stroke-linejoin=" miter" stroke-dashoffset="0" stroke-dasharray=" none" stroke-width="0" stroke-linecap=" butt" d="m-227.49757,-111.87277l0,-5.25l10.95,0l0,-7.22l-10.95,0l0,-4.51l12.06,0l0,-7.26l-19.74,0l0,31.46l19.97,0l0,-7.22l-12.29,0zm32.02,7.86c5.84,0 11.5,-3.26 11.5,-9.56c0,-6.21 -4.88,-8.79 -10.17,-10.4c-1.42,-0.46 -2.48,-0.87 -3.17,-1.2c-0.97,-0.46 -1.66,-0.96 -1.66,-2.11c0,-1.34 1.71,-1.84 2.76,-1.84c2.49,0 3.73,1.1 4.79,3.26l6.53,-3.81c-2.25,-4.65 -6.16,-7.04 -11.32,-7.04c-5.61,0 -10.39,3.63 -10.39,9.43c0,5.93 4.23,8.28 9.34,9.8c1.61,0.46 2.76,0.87 3.54,1.19c1.06,0.42 2.11,0.97 2.11,2.26c0,1.7 -2.3,2.53 -3.68,2.53c-2.99,0 -5.06,-1.15 -6.21,-4.01l-6.44,3.78c2.07,5.29 6.95,7.72 12.47,7.72zm41.03,-24.84l0,-7.26l-23.5,0l0,7.26l7.95,0l0,24.2l7.64,0l0,-24.2l7.91,0zm8.51,20.98c0,2.44 1.34,3.82 3.77,3.82c2.44,0 3.73,-1.43 3.73,-3.82c0,-2.44 -1.29,-3.77 -3.73,-3.77c-2.43,0 -3.77,1.33 -3.77,3.77zm58.51,-4.05l-15.22,0c0.78,-1.75 1.93,-2.94 3.54,-3.49c5.57,-2.07 11.78,-4.37 11.78,-11.27c0,-6.31 -5.94,-10.03 -11.69,-10.03c-6.35,0 -12.33,3.31 -13.38,9.93l7.22,0.74c0.5,-3.04 3.45,-3.86 6.16,-3.86c2.03,0 4.42,1.42 4.42,3.63c0,0.83 -0.46,1.52 -1.43,2.12c-0.96,0.59 -2.48,1.24 -4.51,2.07l-1.38,0.55c-3.45,1.33 -5.93,3.45 -7.4,6.35c-1.47,2.89 -2.3,5.93 -2.49,9.01l0,1.47l24.38,0l0,-7.22zm20.8,7.91c9.24,0 13.38,-8.28 13.38,-16.37c0,-8.33 -4.32,-16.33 -13.38,-16.33c-9.3,0 -13.39,8.19 -13.39,16.33c0,8.14 4.09,16.37 13.39,16.37zm-5.75,-16.37c0,-3.91 0.92,-8.65 5.75,-8.65c4.83,0 5.75,4.74 5.75,8.65c0,3.86 -0.92,8.69 -5.75,8.69c-4.83,0 -5.75,-4.83 -5.75,-8.69zm51.1,8.46l-15.22,0c0.78,-1.75 1.93,-2.94 3.54,-3.49c5.56,-2.07 11.77,-4.37 11.77,-11.27c0,-6.31 -5.93,-10.03 -11.68,-10.03c-6.35,0 -12.33,3.31 -13.39,9.93l7.23,0.74c0.5,-3.04 3.45,-3.86 6.16,-3.86c2.02,0 4.42,1.42 4.42,3.63c0,0.83 -0.46,1.52 -1.43,2.12c-0.97,0.59 -2.48,1.24 -4.51,2.07l-1.38,0.55c-3.45,1.33 -5.93,3.45 -7.4,6.35c-1.48,2.89 -2.3,5.93 -2.49,9.01l0,1.47l24.38,0l0,-7.22zm24.84,0.05l0,-24.24l-7.63,0l-7.96,5.47l4.14,5.84l3.82,-2.8l0,15.73l-8.42,0l0,7.22l24.06,0l0,-7.22l-8.01,0z" paint-order="stroke" id="svg_19"/>
     </g>
    </g>
   </g>
  </g>
 </g>

</svg>